PathFileType	4	(X/Y/Z)	D:\TRACE\spot_10-12-23\spot_arm_body_motion_3_9-platform.trc
DataRate	CameraRate	NumFrames	NumMarkers	Units	OrigDataRate	OrigDataStartFrame	OrigNumFrames
100.00	100.00	      43	5	mm	100.00	5251	      7000
Frame#	Time	Left_Front			Right_Front			Left_Aft			Right_Aft			Post			
		X1	Y1	Z1	X2	Y2	Z2	X3	Y3	Z3	X4	Y4	Z4	X5	Y5	Z5	

5251	52.500	-762.98883	26.39418	-636.57343	809.76868	31.21454	-629.60980	-679.63184	-9.23360	501.27325	737.73358	-6.61544	587.08429	19.46974	773.54834	-932.12500	
5252	52.510	-762.51080	26.01894	-636.53668	810.25732	30.87505	-629.69177	-679.07715	-8.87977	501.21268	738.05682	-6.19662	586.92798	20.40408	772.95776	-932.68146	
5253	52.520	-761.89227	25.51526	-636.59906	810.84015	30.43711	-629.64642	-678.56378	-8.39664	500.80927	738.47058	-5.90259	586.75085	20.94382	772.42682	-933.06573	
5254	52.530	-761.38202	25.32630	-636.88312	811.46783	30.13479	-629.65784	-678.19470	-8.15921	500.75992	739.01599	-5.51458	586.77515	21.42745	771.82959	-933.61816	
5255	52.540	-760.89355	24.88210	-636.98828	811.96594	29.80732	-629.81091	-677.75848	-7.82475	500.63083	739.68555	-5.23001	586.76868	21.93954	771.18506	-934.18146	
5256	52.550	-760.35059	24.44401	-637.10571	812.38800	29.40982	-629.94452	-677.23218	-7.48143	500.50082	740.18182	-4.94312	586.71484	22.24751	770.67065	-934.72333	
5257	52.560	-760.06433	24.14825	-637.11420	812.96564	28.91854	-630.14404	-676.77399	-7.23668	500.38828	740.60846	-4.59939	586.51398	24.14848	769.49164	-936.00006	
5258	52.570	-759.26520	23.68237	-637.27966	813.45703	28.53081	-630.21985	-676.26929	-7.05027	500.38199	741.09552	-4.30441	586.36731	23.51290	769.46893	-935.80267	
5259	52.580	-758.76062	23.45247	-637.35657	813.90607	28.17492	-630.31006	-675.67004	-6.76011	500.33148	741.85522	-3.89575	586.35632	24.27193	768.87378	-936.48657	
5260	52.590	-758.07599	22.91314	-637.56622	814.71997	27.77291	-630.31470	-675.10376	-6.50666	500.22284	742.48529	-3.54744	586.25421	24.89702	768.34009	-937.17706	
5261	52.600	-757.69159	22.63040	-637.68549	815.13141	27.39583	-630.61298	-674.53644	-6.27759	500.03418	742.96704	-3.29592	586.20825	25.24841	767.77393	-937.75604	
5262	52.610	-756.98932	22.07015	-637.69629	815.79846	26.87259	-630.64954	-673.76202	-5.98245	499.94193	743.52502	-3.05989	586.12347	25.94053	767.14819	-938.48633	
5263	52.620	-756.43243	21.70315	-637.76233	816.14081	26.51102	-630.84387	-673.13251	-5.65060	499.84955	744.14331	-2.65930	586.09387	26.64132	766.57770	-938.97522	
5264	52.630	-755.81989	21.28010	-637.84686	816.59668	26.20169	-631.07770	-672.71594	-5.34972	499.73383	744.66827	-2.40562	585.98236	27.01766	766.30536	-939.45319	
5265	52.640	-755.26172	21.10409	-637.98401	817.29303	25.89081	-631.19019	-672.15802	-5.00615	499.73389	745.15338	-2.06193	585.83252	27.65929	765.75616	-940.12866	
5266	52.650	-754.71313	20.73830	-638.05707	818.17792	25.49556	-631.14496	-671.60364	-4.74510	499.69830	745.66406	-1.88339	585.80646	28.18753	765.10449	-940.30499	
5267	52.660	-754.07416	20.25328	-638.13428	818.69702	25.01561	-631.25836	-670.94299	-4.53299	499.60623	746.78271	-1.51595	585.82275	29.07396	764.52765	-940.89850	
5268	52.670	-753.19385	19.76187	-638.20935	819.12256	24.71535	-631.36102	-670.29376	-4.26853	499.60104	747.33563	-1.13749	585.72302	29.64591	764.15283	-941.34064	
5269	52.680	-752.69745	19.55558	-638.34760	819.78326	24.35620	-631.50458	-669.64447	-4.17885	499.49399	747.84430	-0.60013	586.14679	30.02114	763.73663	-941.69934	
5270	52.690	-752.14771	19.31786	-638.46411	820.53192	23.98055	-631.47552	-669.03094	-3.97114	499.24527	748.38940	-0.32947	585.93335	30.40209	763.41650	-941.97968	
5271	52.700	-751.39294	19.20968	-638.53473	821.32971	23.72999	-631.42767	-668.25134	-3.71414	499.19440	748.91522	-0.21968	585.71783	31.51678	762.73291	-942.52582	
5272	52.710	-750.83099	19.24604	-638.41162	821.91260	23.62995	-631.45319	-667.82599	-3.50609	499.13455	749.68146	0.06056	585.68939	32.15688	762.12427	-942.81128	
5273	52.720	-750.07355	18.51718	-638.53662	822.50720	23.09605	-631.77234	-667.02216	-3.05497	499.06708	750.31384	0.39510	585.59668	32.74508	761.66870	-943.26379	
5274	52.730	-749.56012	17.55855	-638.68121	823.27094	22.48425	-631.87830	-666.27924	-2.77453	499.11102	750.96558	0.66683	585.32495	33.31939	761.26495	-943.81458	
5275	52.740	-748.84589	17.14257	-638.90448	823.88580	22.39143	-631.95734	-665.93909	-2.76086	499.03839	751.54205	0.72219	585.22223	34.18307	760.50177	-944.35315	
5276	52.750	-748.18097	17.18127	-638.85938	824.54376	22.31819	-631.95459	-665.22711	-2.65011	499.03085	752.03223	0.73407	585.16907	34.79800	760.08984	-945.04547	
5277	52.760	-747.41980	17.05260	-638.81360	825.14905	22.03038	-632.14850	-664.40649	-2.40434	499.07797	752.69775	0.82872	585.13336	35.35247	760.03174	-945.51978	
5278	52.770	-746.74597	17.05290	-638.81952	825.64771	21.77509	-632.22241	-663.58319	-2.36760	498.90048	753.47449	1.22105	585.07288	35.93048	759.93341	-945.95355	
5279	52.780	-746.09222	16.82365	-638.95221	826.10132	21.78739	-632.26819	-662.94177	-2.31449	499.06839	754.32184	1.58869	585.08832	36.72059	759.64771	-946.31836	
5280	52.790	-745.53741	16.43875	-639.07397	827.02631	21.51991	-632.17706	-662.22021	-2.20603	498.99020	754.76917	1.59708	585.05139	37.51302	759.27502	-946.47485	
5281	52.800	-744.98901	16.28234	-639.10754	827.81659	20.99880	-632.15558	-661.90558	-2.15183	498.92368	755.36804	1.59160	585.04968	38.10945	758.96771	-946.64972	
5282	52.810	-744.28638	16.37691	-639.03625	828.55591	20.85064	-632.09344	-661.11755	-2.10158	498.84824	756.10809	1.70856	585.04633	38.69797	758.70294	-946.78400	
5283	52.820	-743.47614	16.41012	-639.16364	829.04565	21.03622	-631.99866	-660.57275	-1.81735	498.76678	756.87653	1.88429	584.90668	39.42810	758.57959	-946.84143	
5284	52.830	-742.74701	16.10353	-639.16528	829.58832	21.17688	-632.12396	-659.80939	-1.56713	498.75323	757.44952	2.15816	584.83551	39.93207	758.54620	-946.90479	
5285	52.840	-742.35309	16.07368	-639.27289	830.35504	20.80102	-632.21112	-659.33344	-1.55131	498.67084	757.92065	2.17585	584.76886	40.59008	758.43823	-946.72919	
5286	52.850	-741.83734	15.76078	-639.31390	830.94910	20.49198	-632.28888	-658.77393	-1.56248	498.68881	758.46338	2.12659	584.75952	41.14647	758.15228	-946.32379	
5287	52.860	-741.40881	15.70049	-639.21637	831.40009	20.30142	-632.30475	-658.18127	-1.59164	498.67929	759.30383	2.17146	584.79449	41.79843	758.01166	-946.36298	
5288	52.870	-740.49048	15.80045	-639.27277	832.07367	20.43885	-632.23181	-657.54608	-1.48708	498.46866	759.95154	2.36718	584.70087	42.28157	758.09119	-946.43738	
5289	52.880	-739.96344	15.92734	-639.32916	832.72784	20.57168	-632.33649	-656.84363	-1.53522	498.51855	760.42572	2.41433	584.69135	42.74961	758.08887	-946.64221	
5290	52.890	-739.56683	15.99078	-639.36945	833.24042	20.62654	-632.45691	-656.25519	-1.22402	498.40997	760.86987	2.39759	584.66211	43.33795	758.00366	-946.90356	
5291	52.900	-738.93658	15.78741	-639.32495	833.71368	20.55191	-632.50574	-655.83435	-1.38564	498.40198	761.33960	2.24529	584.62305	43.90918	757.90167	-947.18970	
5292	52.910	-738.35901	15.61408	-639.27759	834.21844	20.50979	-632.48004	-655.28662	-1.67377	498.58118	761.80579	2.18208	584.69922	44.26087	757.84149	-947.31458	
5293	52.920	-737.95056	15.71038	-639.37769	834.69104	20.49488	-632.43176	-654.79419	-1.89944	498.57397	762.46130	2.20227	584.80902	44.80717	757.87244	-947.38556	
